# xmcd
#
# Track frame offsets:
#	182
#	25910
#	54087
#	72162
#	88915
#	109197
#	131160
#	150367
#	164522
#	184312
#
# Disc length: 2693 seconds
#
# Revision: 0
# Processed by: cddbd v1.4PL0 Copyright (c) Steve Scherf et al.
# Submitted via: EasyCDDAExtractor 4.6.9.1
#
DISCID=820a830a
DTITLE=Michel Leclerc - Recueil Spécial Piano N°7 (Goldman)
DYEAR=1998
DGENRE=chanson
TTITLE0=Pas toi
TTITLE1=En passant
TTITLE2=Envole-moi
TTITLE3=Filles faciles
TTITLE4=Né en 17 à Leindenstat
TTITLE5=Là-bas
TTITLE6=L'Envie
TTITLE7=Quand tu danses
TTITLE8=On ira
TTITLE9=S'il suffisait qu'on s'aime
EXTD=
EXTT0=
EXTT1=
EXTT2=
EXTT3=
EXTT4=
EXTT5=
EXTT6=
EXTT7=
EXTT8=
EXTT9=
PLAYORDER=
